<svg width="48" height="45" viewBox="0 0 48 45" fill="none" xmlns="http://www.w3.org/2000/svg">
<path d="M8 37.5C6.9 37.5 5.95833 37.1328 5.175 36.3984C4.39167 35.6641 4 34.7812 4 33.75V11.25C4 10.2188 4.39167 9.33594 5.175 8.60156C5.95833 7.86719 6.9 7.5 8 7.5H40C41.1 7.5 42.0417 7.86719 42.825 8.60156C43.6083 9.33594 44 10.2188 44 11.25V33.75C44 34.7812 43.6083 35.6641 42.825 36.3984C42.0417 37.1328 41.1 37.5 40 37.5H8ZM24 24.375L8 15V33.75H40V15L24 24.375ZM24 20.625L40 11.25H8L24 20.625ZM8 15V11.25V33.75V15Z" fill="white"/>
</svg>
