<svg width="38" height="37" viewBox="0 0 38 37" fill="none" xmlns="http://www.w3.org/2000/svg">
<g clip-path="url(#clip0_11_5374)">
<path d="M23.8292 7.70841C25.3757 8.0022 26.7969 8.73864 27.9111 9.82348C29.0253 10.9083 29.7816 12.2922 30.0833 13.798M23.8292 1.54175C27.0422 1.8893 30.0383 3.29027 32.3257 5.51463C34.6131 7.739 36.0557 10.6546 36.4167 13.7826M34.8333 26.0851V30.7101C34.8351 31.1394 34.7448 31.5644 34.5681 31.9578C34.3915 32.3512 34.1324 32.7044 33.8075 32.9946C33.4825 33.2849 33.0989 33.5059 32.6812 33.6434C32.2635 33.781 31.8208 33.8321 31.3817 33.7934C26.5095 33.2779 21.8294 31.6569 17.7175 29.0605C13.8919 26.6935 10.6484 23.5354 8.2175 19.8105C5.54163 15.7886 3.87638 11.2095 3.35666 6.44425C3.3171 6.01793 3.36913 5.58825 3.50945 5.18259C3.64978 4.77692 3.87532 4.40414 4.17171 4.088C4.4681 3.77185 4.82885 3.51926 5.231 3.3463C5.63314 3.17335 6.06787 3.08382 6.5075 3.08341H11.2575C12.0259 3.07605 12.7708 3.34099 13.3535 3.82886C13.9361 4.31673 14.3166 4.99423 14.4242 5.73508C14.6246 7.21518 14.9965 8.66845 15.5325 10.0672C15.7455 10.619 15.7916 11.2187 15.6653 11.7952C15.5391 12.3717 15.2457 12.9009 14.82 13.3201L12.8092 15.278C15.0631 19.1376 18.3452 22.3333 22.3092 24.528L24.32 22.5701C24.7505 22.1556 25.294 21.8699 25.8861 21.747C26.4782 21.624 27.0941 21.6689 27.6608 21.8763C29.0973 22.3983 30.5899 22.7603 32.11 22.9555C32.8791 23.0611 33.5815 23.4384 34.0837 24.0154C34.5858 24.5924 34.8526 25.329 34.8333 26.0851Z" stroke="#F3F3F3" stroke-width="4" stroke-linecap="round" stroke-linejoin="round"/>
</g>
<defs>
<clipPath id="clip0_11_5374">
<rect width="38" height="37" fill="white"/>
</clipPath>
</defs>
</svg>
